<mxfile host="app.diagrams.net" agent="Mozilla/5.0 (Windows NT 10.0; Win64; x64) AppleWebKit/537.36 (KHTML, like Gecko) Chrome/139.0.0.0 Safari/537.36" version="28.2.0">
  <diagram name="Page-1" id="Zv99Fo8_Vx5ddIXLMCGe">
    <mxGraphModel dx="2084" dy="1054" grid="1" gridSize="10" guides="1" tooltips="1" connect="1" arrows="1" fold="1" page="1" pageScale="1" pageWidth="850" pageHeight="1100" math="0" shadow="0">
      <root>
        <mxCell id="0" />
        <mxCell id="1" parent="0" />
        <mxCell id="AcZVOfWfZPiBcioGr84g-23" value="" style="edgeStyle=orthogonalEdgeStyle;rounded=0;orthogonalLoop=1;jettySize=auto;html=1;labelBackgroundColor=none;strokeColor=#23445D;fontColor=default;" edge="1" parent="1" source="AcZVOfWfZPiBcioGr84g-1" target="AcZVOfWfZPiBcioGr84g-8">
          <mxGeometry relative="1" as="geometry" />
        </mxCell>
        <mxCell id="AcZVOfWfZPiBcioGr84g-1" value="PLAN" style="ellipse;whiteSpace=wrap;html=1;aspect=fixed;labelBackgroundColor=none;fillColor=#182E3E;strokeColor=#FFFFFF;fontColor=#FFFFFF;" vertex="1" parent="1">
          <mxGeometry x="385" y="80" width="80" height="80" as="geometry" />
        </mxCell>
        <mxCell id="AcZVOfWfZPiBcioGr84g-20" value="" style="edgeStyle=orthogonalEdgeStyle;rounded=0;orthogonalLoop=1;jettySize=auto;html=1;labelBackgroundColor=none;strokeColor=#23445D;fontColor=default;" edge="1" parent="1" source="AcZVOfWfZPiBcioGr84g-2" target="AcZVOfWfZPiBcioGr84g-3">
          <mxGeometry relative="1" as="geometry" />
        </mxCell>
        <mxCell id="AcZVOfWfZPiBcioGr84g-2" value="BUILD" style="ellipse;whiteSpace=wrap;html=1;aspect=fixed;labelBackgroundColor=none;fillColor=#182E3E;strokeColor=#FFFFFF;fontColor=#FFFFFF;" vertex="1" parent="1">
          <mxGeometry x="385" y="360" width="80" height="80" as="geometry" />
        </mxCell>
        <mxCell id="AcZVOfWfZPiBcioGr84g-19" value="" style="edgeStyle=orthogonalEdgeStyle;rounded=0;orthogonalLoop=1;jettySize=auto;html=1;labelBackgroundColor=none;strokeColor=#23445D;fontColor=default;" edge="1" parent="1" source="AcZVOfWfZPiBcioGr84g-3" target="AcZVOfWfZPiBcioGr84g-4">
          <mxGeometry relative="1" as="geometry" />
        </mxCell>
        <mxCell id="AcZVOfWfZPiBcioGr84g-3" value="TEST" style="ellipse;whiteSpace=wrap;html=1;aspect=fixed;labelBackgroundColor=none;fillColor=#182E3E;strokeColor=#FFFFFF;fontColor=#FFFFFF;" vertex="1" parent="1">
          <mxGeometry x="385" y="500" width="80" height="80" as="geometry" />
        </mxCell>
        <mxCell id="AcZVOfWfZPiBcioGr84g-18" value="" style="edgeStyle=orthogonalEdgeStyle;rounded=0;orthogonalLoop=1;jettySize=auto;html=1;labelBackgroundColor=none;strokeColor=#23445D;fontColor=default;" edge="1" parent="1" source="AcZVOfWfZPiBcioGr84g-4" target="AcZVOfWfZPiBcioGr84g-5">
          <mxGeometry relative="1" as="geometry" />
        </mxCell>
        <mxCell id="AcZVOfWfZPiBcioGr84g-4" value="RELEASE" style="ellipse;whiteSpace=wrap;html=1;aspect=fixed;labelBackgroundColor=none;fillColor=#182E3E;strokeColor=#FFFFFF;fontColor=#FFFFFF;" vertex="1" parent="1">
          <mxGeometry x="385" y="640" width="80" height="80" as="geometry" />
        </mxCell>
        <mxCell id="AcZVOfWfZPiBcioGr84g-17" value="" style="edgeStyle=orthogonalEdgeStyle;rounded=0;orthogonalLoop=1;jettySize=auto;html=1;labelBackgroundColor=none;strokeColor=#23445D;fontColor=default;" edge="1" parent="1" source="AcZVOfWfZPiBcioGr84g-5" target="AcZVOfWfZPiBcioGr84g-6">
          <mxGeometry relative="1" as="geometry" />
        </mxCell>
        <mxCell id="AcZVOfWfZPiBcioGr84g-5" value="DEPLOY" style="ellipse;whiteSpace=wrap;html=1;aspect=fixed;labelBackgroundColor=none;fillColor=#182E3E;strokeColor=#FFFFFF;fontColor=#FFFFFF;" vertex="1" parent="1">
          <mxGeometry x="385" y="800" width="80" height="80" as="geometry" />
        </mxCell>
        <mxCell id="AcZVOfWfZPiBcioGr84g-16" value="" style="edgeStyle=orthogonalEdgeStyle;rounded=0;orthogonalLoop=1;jettySize=auto;html=1;labelBackgroundColor=none;strokeColor=#23445D;fontColor=default;" edge="1" parent="1" source="AcZVOfWfZPiBcioGr84g-6" target="AcZVOfWfZPiBcioGr84g-7">
          <mxGeometry relative="1" as="geometry" />
        </mxCell>
        <mxCell id="AcZVOfWfZPiBcioGr84g-6" value="OPERATE" style="ellipse;whiteSpace=wrap;html=1;aspect=fixed;labelBackgroundColor=none;fillColor=#182E3E;strokeColor=#FFFFFF;fontColor=#FFFFFF;" vertex="1" parent="1">
          <mxGeometry x="385" y="940" width="80" height="80" as="geometry" />
        </mxCell>
        <mxCell id="AcZVOfWfZPiBcioGr84g-7" value="MONITOR" style="ellipse;whiteSpace=wrap;html=1;aspect=fixed;labelBackgroundColor=none;fillColor=#182E3E;strokeColor=#FFFFFF;fontColor=#FFFFFF;" vertex="1" parent="1">
          <mxGeometry x="385" y="1068" width="80" height="80" as="geometry" />
        </mxCell>
        <mxCell id="AcZVOfWfZPiBcioGr84g-21" value="" style="edgeStyle=orthogonalEdgeStyle;rounded=0;orthogonalLoop=1;jettySize=auto;html=1;labelBackgroundColor=none;strokeColor=#23445D;fontColor=default;" edge="1" parent="1" source="AcZVOfWfZPiBcioGr84g-8" target="AcZVOfWfZPiBcioGr84g-2">
          <mxGeometry relative="1" as="geometry" />
        </mxCell>
        <mxCell id="AcZVOfWfZPiBcioGr84g-8" value="DEVELOP" style="ellipse;whiteSpace=wrap;html=1;aspect=fixed;labelBackgroundColor=none;fillColor=#182E3E;strokeColor=#FFFFFF;fontColor=#FFFFFF;" vertex="1" parent="1">
          <mxGeometry x="385" y="220" width="80" height="80" as="geometry" />
        </mxCell>
      </root>
    </mxGraphModel>
  </diagram>
</mxfile>
